# xmcd
#
# Track frame offsets: 
#        150
#        16055
#        34213
#        46367
#        61597
#        94067
#        107855
#        128548
#        145290
#        161474
#
# Disc length: 2383 seconds
#
# Revision: 0
# Processed by: cddbd v1.5.2PL0 Copyright (c) Steve Scherf et al.
# Submitted via: ExactAudioCopy v0.99pb4
#
DISCID=78094d0a
DTITLE=Skin 'n' Bone - Live Hits Harder
DYEAR=2006
DGENRE=Blues
TTITLE0=Crazy Little Woman
TTITLE1=If My Baby Quits Me
TTITLE2=Destination: The Blues
TTITLE3=She's Got The Money
TTITLE4=One Step Forward
TTITLE5=Jackpot Winner
TTITLE6=Every Man
TTITLE7=We've Got It
TTITLE8=Back To You
TTITLE9=Walking Shoes
EXTD=
EXTT0=
EXTT1=
EXTT2=
EXTT3=
EXTT4=
EXTT5=
EXTT6=
EXTT7=
EXTT8=
EXTT9=
PLAYORDER=
